# xmcd
#
# Track frame offsets: 
#        150
#        13617
#        25455
#        41515
#        54202
#        65805
#        79177
#        91690
#        104495
#        120080
#        131892
#        142142
#        157447
#        165517
#        175095
#        189447
#        205542
#        219127
#        230842
#        245065
#
# Disc length: 3456 seconds
#
# Revision: 3
# Processed by: cddbd v1.5.2PL0 Copyright (c) Steve Scherf et al.
# Submitted via: ExactAudioCopy v0.99pb4
#
DISCID=160d7e14
DTITLE=Henry Mancini - Martinis with Mancini
DYEAR=1997
DGENRE=Jazz
TTITLE0=Playboy's Theme
TTITLE1=Moon River Cha Cha
TTITLE2=Brief and Breezy
TTITLE3=Something Loose
TTITLE4=Mambo Parisienne
TTITLE5=Lightly Latin
TTITLE6=Rain Drops in Rio
TTITLE7=Something for Sellers
TTITLE8=Odd Ball
TTITLE9=The Old College Try Cha-Cha
TTITLE10=Mr. Lucky (Goes Latin)
TTITLE11=Everybody Blow!
TTITLE12=It Had Better Be Tonight
TTITLE13=No-Cal Sugar Loaf
TTITLE14=Bijou
TTITLE15=Your Father's Feathers
TTITLE16=Megeue
TTITLE17=The Chaser
TTITLE18=The Beat
TTITLE19=Loose Caboose
EXTD=YEAR: 1997
EXTT0=
EXTT1=
EXTT2=
EXTT3=
EXTT4=
EXTT5=
EXTT6=
EXTT7=
EXTT8=
EXTT9=
EXTT10=
EXTT11=
EXTT12=
EXTT13=
EXTT14=
EXTT15=
EXTT16=
EXTT17=
EXTT18=
EXTT19=
PLAYORDER=
